Coordinates
version=1
nRows=24
nColumns=22
inDegrees=yes

Units are S.I. units (second, meters, Newtons, ...)
If the header above contains a line with 'inDegrees', this indicates whether rotational values are in degrees (yes) or radians (no).

endheader
time	pelvis_tilt	pelvis_list	pelvis_rotation	pelvis_tx	pelvis_ty	pelvis_tz	hip_flexion_r	hip_adduction_r	hip_rotation_r	knee_angle_r	ankle_angle_r	subtalar_angle_r	hip_flexion_l	hip_adduction_l	hip_rotation_l	knee_angle_l	ankle_angle_l	subtalar_angle_l	lumbar_extension	lumbar_bending	lumbar_rotation
      5.38000000	      1.74094501	      1.17591099	    -32.11025598	      0.57885802	      0.89202975	      0.29841101	     -8.26583319	     -4.96150282	      5.01597579	    -31.23071737	     11.75935200	      0.79335449	     18.31347290	     -0.78200910	    -13.70573694	    -23.22861882	      5.39283500	     -2.76247792	     -6.16886717	     -3.19784135	      7.67240366
      5.39000000	      1.55933406	      1.18421475	    -32.36653987	      0.58400902	      0.89238803	      0.29873611	     -7.34237665	     -4.99066804	      5.52876930	    -32.81908756	     10.88700709	      1.19105016	     18.18839790	     -0.75483194	    -13.87187406	    -23.33350847	      5.70706467	     -2.85434521	     -6.03892706	     -3.11399261	      7.79969524
      5.40000000	      1.43594788	      1.17987191	    -32.70229543	      0.58891208	      0.89282468	      0.29918165	     -6.39231548	     -5.02998936	      6.09699149	    -34.50144124	     10.05571692	      1.36718717	     17.99377514	     -0.74304341	    -14.15095342	    -23.42344999	      6.00739099	     -2.87572347	     -5.99133669	     -3.06657508	      7.95721170
      5.41000000	      1.26886359	      1.16723667	    -33.04303263	      0.59358074	      0.89317933	      0.29960037	     -5.31954818	     -5.02594890	      6.60697354	    -36.28426511	      9.23557718	      1.59990350	     17.86355566	     -0.76642680	    -14.38650545	    -23.53725695	      6.31869650	     -2.90793289	     -5.92935562	     -2.98532118	      8.09717876
      5.42000000	      1.10394046	      1.14367854	    -33.40452317	      0.59802819	      0.89351750	      0.30002853	     -4.18303887	     -5.00758610	      7.06522661	    -38.13409066	      8.45948379	      1.82764871	     17.73550545	     -0.80617389	    -14.62207005	    -23.65082256	      6.62761151	     -2.95207202	     -5.89821606	     -2.89963144	      8.22460126
      5.43000000	      0.95273128	      1.11222196	    -33.78704994	      0.60227494	      0.89385232	      0.30046123	     -3.00754029	     -4.99089242	      7.46156161	    -40.01565074	      7.74938920	      2.01815525	     17.59284863	     -0.84984780	    -14.86744239	    -23.74944822	      6.93301556	     -3.01399024	     -5.90410196	     -2.81741731	      8.33404136
      5.44000000	      0.82198182	      1.07100147	    -34.17786523	      0.60635970	      0.89419264	      0.30086787	     -1.81828065	     -4.98828445	      7.77039392	    -41.89014960	      7.13036881	      2.15688335	     17.42384791	     -0.88684325	    -15.11376488	    -23.82566169	      7.23352971	     -3.10071307	     -5.95522875	     -2.73739366	      8.42274875
      5.45000000	      0.72132506	      1.02650503	    -34.57405836	      0.61030028	      0.89455006	      0.30124716	     -0.63921714	     -5.01198790	      8.00560909	    -43.71465830	      6.63943437	      2.21925056	     17.21820208	     -0.90497472	    -15.37750674	    -23.86916073	      7.52808308	     -3.20863545	     -6.05271939	     -2.67109146	      8.48141527
      5.46000000	      0.64526780	      0.97309274	    -34.96435811	      0.61412722	      0.89492487	      0.30159208	      0.51281317	     -5.06522324	      8.14006022	    -45.44389197	      6.30643779	      2.19645967	     16.97705432	     -0.90842520	    -15.64394576	    -23.88021939	      7.81309598	     -3.34269879	     -6.19092365	     -2.61084353	      8.50843423
      5.47000000	      0.59511771	      0.91361500	    -35.34591823	      0.61786212	      0.89532810	      0.30190039	      1.62157402	     -5.15370959	      8.18500717	    -47.03382382	      6.16255842	      2.06429543	     16.69612999	     -0.89227307	    -15.91683168	    -23.85227516	      8.08533530	     -3.49769735	     -6.36467736	     -2.55841463	      8.50145700
      5.48000000	      0.56580777	      0.84781301	    -35.70916616	      0.62152231	      0.89576361	      0.30215930	      2.67647199	     -5.27698843	      8.14031209	    -48.44629369	      6.22223667	      1.79112239	     16.38000944	     -0.85835544	    -16.19380808	    -23.78360877	      8.33979580	     -3.67375335	     -6.56733986	     -2.50831956	      8.45981453
      5.49000000	      0.54493966	      0.76861885	    -36.03850871	      0.62511248	      0.89623331	      0.30237976	      3.66919226	     -5.42216332	      7.98715389	    -49.64443770	      6.47952014	      1.17993309	     16.04964821	     -0.82738332	    -16.48436633	    -23.70268921	      8.55603678	     -3.94181994	     -6.78672756	     -2.44888498	      8.36472918
      5.50000000	      0.55641628	      0.66868993	    -36.33752704	      0.62866211	      0.89679239	      0.30256727	      4.55467953	     -5.58956314	      7.76901045	    -50.59408423	      6.92908104	      0.45316921	     15.64507948	     -0.77042226	    -16.72057121	    -23.54442950	      8.80637361	     -4.12391580	     -7.04916663	     -2.38697767	      8.23293035
      5.51000000	      0.57329598	      0.58306213	    -36.61837692	      0.63214786	      0.89737560	      0.30274261	      5.39666570	     -5.79683051	      7.48232294	    -51.31259228	      7.48612100	     -0.26612713	     15.23596858	     -0.70079069	    -17.00519587	    -23.35913796	      8.95493697	     -4.26790720	     -7.29914837	     -2.34125400	      8.08720650
      5.52000000	      0.58319082	      0.46998147	    -36.85026834	      0.63559978	      0.89801636	      0.30289617	      6.14319560	     -5.98618965	      7.12081557	    -51.75260664	      8.15614117	     -1.12262744	     14.80640918	     -0.64216185	    -17.22305650	    -23.14024014	      9.13012885	     -4.40328531	     -7.55417996	     -2.26218875	      7.90676671
      5.53000000	      0.59342832	      0.34807386	    -37.04473337	      0.63897366	      0.89869054	      0.30303783	      6.81721602	     -6.16634284	      6.71532960	    -51.94598677	      8.85433258	     -1.97418298	     14.37888218	     -0.59076770	    -17.42281077	    -22.92140495	      9.27639434	     -4.51337690	     -7.81247451	     -2.17608001	      7.68831342
      5.54000000	      0.58028892	      0.20722141	    -37.20662704	      0.64231141	      0.89939210	      0.30320262	      7.41325633	     -6.31161720	      6.26294382	    -51.86941587	      9.57506010	     -2.79839978	     13.95641821	     -0.56850499	    -17.59541505	    -22.68862627	      9.41219987	     -4.60336869	     -8.04834255	     -2.05635212	      7.46800878
      5.55000000	      0.55779821	      0.06407248	    -37.33878336	      0.64559106	      0.90010455	      0.30338049	      7.94241079	     -6.43762845	      5.77789866	    -51.55491189	     10.27263864	     -3.51365057	     13.54429009	     -0.55286920	    -17.74030095	    -22.45171025	      9.53284117	     -4.67235762	     -8.26999035	     -1.93027651	      7.24057354
      5.56000000	      0.50959203	     -0.08886477	    -37.45692153	      0.64878754	      0.90080739	      0.30359274	      8.41440910	     -6.51207732	      5.29580362	    -51.01151521	     10.95334266	     -4.17073080	     13.15839994	     -0.56958014	    -17.87731160	    -22.22613039	      9.63846211	     -4.73270589	     -8.46737787	     -1.78127640	      7.02589439
      5.57000000	      0.45112800	     -0.23715513	    -37.55809350	      0.65191612	      0.90148892	      0.30383333	      8.82974623	     -6.56219191	      4.80496322	    -50.26191666	     11.59802597	     -4.71884065	     12.78818365	     -0.59021587	    -17.99037425	    -21.99851364	      9.74176251	     -4.78315851	     -8.64524942	     -1.63227765	      6.81605727
      5.58000000	      0.38233515	     -0.38603575	    -37.62658451	      0.65499808	      0.90213361	      0.30406581	      9.18583231	     -6.59408010	      4.27333178	    -49.32630251	     12.18872691	     -5.01403889	     12.43783373	     -0.61232163	    -18.04821267	    -21.77750785	      9.87357379	     -4.81258835	     -8.81007948	     -1.47480012	      6.59711994
      5.59000000	      0.31267517	     -0.54383618	    -37.68843109	      0.65800484	      0.90277258	      0.30435309	      9.46459156	     -6.58942661	      3.74575900	    -48.20177013	     12.74363922	     -5.37623825	     12.09385894	     -0.65352354	    -18.12116913	    -21.57417357	      9.97794644	     -4.86089207	     -8.97262727	     -1.31480288	      6.39079666
      5.60000000	      0.23340153	     -0.69218052	    -37.73971811	      0.66092935	      0.90334661	      0.30465070	      9.70390528	     -6.56789290	      3.21023187	    -46.93172109	     13.27567012	     -5.68218232	     11.78322380	     -0.70138620	    -18.19653483	    -21.39675688	     10.07588918	     -4.91106787	     -9.11934908	     -1.15786346	      6.20295086
      5.61000000	      0.14914968	     -0.83886536	    -37.78010728	      0.66377450	      0.90387131	      0.30498708	      9.89085253	     -6.52088666	      2.66933937	    -45.52603035	     13.77385036	     -5.89899875	     11.49007472	     -0.75434301	    -18.24677355	    -21.23374775	     10.18880609	     -4.95802985	     -9.25396433	     -1.00459078	      6.00184437
